<mxfile host="app.diagrams.net" modified="2023-10-03T18:51:40.215Z" agent="Mozilla/5.0 (Windows NT 10.0; Win64; x64) AppleWebKit/537.36 (KHTML, like Gecko) Chrome/117.0.0.0 Safari/537.36" version="22.0.2" etag="0Hb5DEb9pO22m1fWxnTq" type="github">
  <diagram name="Page-1" id="-24CJkMX8JZr4wwSGytm">
    <mxGraphModel>
      <root>
        <mxCell id="0" />
        <mxCell id="1" parent="0" />
      </root>
    </mxGraphModel>
  </diagram>
</mxfile>
